<svg width="21" height="18" viewBox="0 0 21 18" fill="none" xmlns="http://www.w3.org/2000/svg">
<path d="M18.75 4.5L18.125 15.132C18.0913 15.705 17.8399 16.2436 17.4222 16.6373C17.0045 17.031 16.452 17.2502 15.878 17.25H5.122C4.54796 17.2502 3.99555 17.031 3.57783 16.6373C3.16011 16.2436 2.90868 15.705 2.875 15.132L2.25 4.5M8.5 8.25H12.5M1.875 4.5H19.125C19.746 4.5 20.25 3.996 20.25 3.375V1.875C20.25 1.254 19.746 0.75 19.125 0.75H1.875C1.254 0.75 0.75 1.254 0.75 1.875V3.375C0.75 3.996 1.254 4.5 1.875 4.5Z" stroke="#9F9F9F" stroke-width="1.5" stroke-linecap="round" stroke-linejoin="round"/>
</svg>
